<?xml version="1.0" standalone="no"?>
<!DOCTYPE svg PUBLIC "-//W3C//DTD SVG 20010904//EN"
 "http://www.w3.org/TR/2001/REC-SVG-20010904/DTD/svg10.dtd">
<svg version="1.0" xmlns="http://www.w3.org/2000/svg"
 width="80.000000pt" height="80.000000pt" viewBox="0 0 80.000000 80.000000"
 preserveAspectRatio="xMidYMid meet">
<metadata>
Created by potrace 1.11, written by Peter Selinger 2001-2013
</metadata>
<g transform="translate(0.000000,80.000000) scale(0.100000,-0.100000)"
fill="#000000" stroke="none">
<path d="M288 781 c-72 -24 -113 -49 -164 -103 -52 -55 -78 -99 -98 -167 -43
-148 2 -302 120 -410 76 -70 145 -95 259 -95 111 0 181 25 253 90 151 135 185
341 85 511 -37 63 -124 138 -191 164 -79 30 -190 35 -264 10z m141 -110 c12
-8 13 -16 4 -45 -6 -19 -8 -37 -5 -40 14 -15 31 -3 42 29 11 35 24 42 47 27
10 -6 10 -16 0 -47 -9 -30 -9 -39 1 -43 7 -2 26 -15 42 -29 40 -33 42 -92 4
-130 -23 -23 -24 -27 -10 -42 32 -35 11 -127 -35 -151 -11 -6 -46 -10 -77 -9
l-57 3 -9 -37 c-8 -31 -13 -36 -30 -31 -29 9 -30 9 -17 45 15 43 14 49 -8 49
-13 0 -23 -11 -31 -35 -12 -35 -24 -42 -48 -27 -10 7 -10 15 -2 36 17 45 12
53 -35 66 -44 12 -44 13 -30 40 11 21 19 26 42 23 28 -5 29 -3 64 111 20 63
33 119 30 124 -3 5 -16 13 -29 16 -18 6 -21 12 -16 29 9 31 8 31 59 14 35 -12
47 -13 50 -4 26 73 27 75 54 58z"/>
<path d="M391 493 c-15 -53 -14 -60 12 -67 59 -16 103 2 95 40 -3 19 -42 49
-75 59 -19 5 -23 1 -32 -32z"/>
<path d="M349 363 c-6 -16 -13 -40 -16 -55 -5 -24 -1 -28 33 -37 72 -20 104
-9 104 34 0 27 -24 49 -73 70 -37 15 -37 15 -48 -12z"/>
</g>
</svg>
